<?xml version="1.0" encoding="UTF-8" standalone="no"?>
<svg width="84px" height="61px" viewBox="0 0 84 61" version="1.1" xmlns="http://www.w3.org/2000/svg" xmlns:xlink="http://www.w3.org/1999/xlink">
    <!-- Generator: Sketch 41.2 (35397) - http://www.bohemiancoding.com/sketch -->
    <title>Shape</title>
    <desc>Created with Sketch.</desc>
    <defs></defs>
    <g id="v02_salestracker" stroke="none" stroke-width="1" fill="#00adef" fill-rule="evenodd">
        <g id="02.5b_Handover" transform="translate(-1134.000000, -120.000000)" fill="#00adef">
            <g id="chat" transform="translate(1134.000000, 117.000000)">
                <path d="M59.038,38.757 L27.736,38.757 L9.579,50.565 L9.579,38.757 L1.671,38.757 C0.557,38.757 0,38.2 0,37.086 L0,4.671 C0,3.557 0.557,3 1.671,3 L59.038,3 C60.152,3 60.709,3.557 60.709,4.671 L60.709,37.086 C60.708,38.2 60.152,38.757 59.038,38.757 L59.038,38.757 L59.038,38.757 L59.038,38.757 Z M10.248,13.36 L10.248,17.816 L48.567,17.816 L48.567,13.36 L10.248,13.36 L10.248,13.36 L10.248,13.36 Z M10.248,28.509 L35.423,28.509 L35.423,24.053 L10.248,24.053 L10.248,28.509 L10.248,28.509 L10.248,28.509 Z M83.098,27.952 L83.098,52.681 C83.098,53.795 82.541,54.352 81.427,54.352 L75.523,54.352 L75.523,63.598 L61.488,54.352 L37.093,54.352 C35.979,54.352 35.422,53.795 35.422,52.681 L35.422,44.884 L65.164,44.884 C66.278,44.884 66.835,44.327 66.835,43.213 L66.835,26.281 L81.427,26.281 C82.541,26.281 83.098,26.838 83.098,27.952 L83.098,27.952 L83.098,27.952 Z" id="Shape"></path>
            </g>
        </g>
    </g>
</svg>
