<?xml version="1.0" encoding="UTF-8"?>
<svg width="211px" height="211px" viewBox="0 0 211 211" version="1.1" xmlns="http://www.w3.org/2000/svg" xmlns:xlink="http://www.w3.org/1999/xlink">
    <!-- Generator: Sketch 42 (36781) - http://www.bohemiancoding.com/sketch -->
    <title>sad</title>
    <desc>Created with Sketch.</desc>
    <defs></defs>
    <g id="v02_salestracker" stroke="none" stroke-width="1" fill="none" fill-rule="evenodd">
        <g id="02.7_Feedback" transform="translate(-615.000000, -1071.000000)" fill="#00ADEF">
            <g id="Comment" transform="translate(56.000000, 998.000000)">
                <g id="sad" transform="translate(559.000000, 73.000000)">
                    <path d="M105.362683,131.332094 L105.319143,131.332094 C90.4905317,131.328744 75.3403968,137.827879 65.9709921,151.169443 C63.4490397,154.76984 64.3248571,159.741737 67.9269286,162.25699 C71.5273254,164.787316 76.4925238,163.909824 79.0161508,160.309427 C85.0011825,151.743832 95.0169841,147.27599 105.362683,147.265943 C115.713405,147.27599 125.724183,151.743832 131.70419,160.309427 C134.226143,163.909824 139.191341,164.787316 142.793413,162.263689 C146.398833,159.741737 147.274651,154.778213 144.747675,151.169443 C135.388317,137.816157 120.20469,131.318697 105.362683,131.332094 M105.362683,194.087848 C56.3570952,194.005792 16.7209127,154.36961 16.6388571,105.362348 C16.7209127,56.3668079 56.3570952,16.7289508 105.362683,16.6385222 C154.358222,16.7289508 193.994405,56.3668079 194.088183,105.362348 C193.994405,154.36961 154.358222,194.005792 105.362683,194.087848 M105.362683,-0.000334920634 C47.1685476,0.00803809524 0.00502380952,47.1749111 0,105.362348 C0.00502380952,163.558157 47.1685476,210.720006 105.362683,210.72503 C163.550119,210.720006 210.713643,163.558157 210.72704,105.362348 C210.718667,47.1749111 163.550119,0.00803809524 105.362683,-0.000334920634 M82.492627,88.1105857 C82.492627,78.4112841 74.6303651,70.5490222 64.9310635,70.5490222 C55.2317619,70.5490222 47.3711746,78.4112841 47.3711746,88.1105857 C47.3711746,97.8098873 55.2317619,105.670475 64.9310635,105.670475 C74.6303651,105.670475 82.492627,97.8098873 82.492627,88.1105857 M145.795976,70.5490222 C136.095,70.5490222 128.234413,78.4112841 128.234413,88.1105857 C128.234413,97.8098873 136.095,105.670475 145.795976,105.670475 C155.495278,105.670475 163.355865,97.8098873 163.355865,88.1105857 C163.355865,78.4112841 155.495278,70.5490222 145.795976,70.5490222" id="Fill-1"></path>
                </g>
            </g>
        </g>
    </g>
</svg>