<?xml version="1.0" encoding="UTF-8" standalone="no"?>
<svg width="148px" height="143px" viewBox="0 0 148 143" version="1.1" xmlns="http://www.w3.org/2000/svg" xmlns:xlink="http://www.w3.org/1999/xlink">
    <!-- Generator: Sketch 41.2 (35397) - http://www.bohemiancoding.com/sketch -->
    <title>Combined Shape</title>
    <desc>Created with Sketch.</desc>
    <defs></defs>
    <g id="Symbols" stroke="none" stroke-width="1" fill="none" fill-rule="evenodd">
        <g id="Handover_2" transform="translate(-19.000000, -28.000000)" fill="#FFFFFF">
            <path d="M111.766634,108.867517 L117.946327,108.867517 C117.946327,108.867517 126.613036,119.320323 126.613036,134.281016 C126.613036,148.717696 117.946327,158.648776 117.946327,158.648776 C117.946327,158.648776 117.250284,158.915437 115.538206,159.179446 L115.538206,170.622426 L99.3984518,170.622426 L99.3984518,159.237173 C97.4001005,158.955832 96.5986189,158.648776 96.5986189,158.648776 C96.5986189,158.648776 87.6086306,149.241709 87.6086306,134.281016 C87.6086306,119.320323 96.5986189,108.867517 96.5986189,108.867517 L103.271267,108.867517 C102.545887,107.428576 102.021804,105.601026 101.728039,103.547351 C99.4377576,104.109918 96.5797973,102.840183 92.7567792,100.454834 C86.6411608,96.6390303 59.9991772,81.0938753 52.7498888,78.5032621 C45.5006003,75.912649 38.1605298,67.5200131 35.3831858,66.8049093 C32.6058419,66.0898055 19.0989063,64.5102608 19.0989063,64.5102608 C19.0989063,64.5102608 22.0424958,54.9642937 28.2144131,45.7168805 C34.0119802,37.030358 43.0110171,28.6072708 44.4744171,28.6072708 C63.0530456,28.6072708 81.6064413,28.7752988 85.0971259,28.7752988 C91.1773171,28.7752988 110.651938,34.6458791 137.352967,48.6211668 C164.053996,62.5964546 166.324288,64.7375852 166.324288,65.8099958 C166.324288,66.8824063 162.931397,78.3785289 142.034522,68.4633446 C121.137647,58.5481602 115.760095,57.5953165 115.760095,57.5953165 C115.760095,57.5953165 121.469039,62.5514325 121.469039,75.912649 C121.469039,89.2738654 121.319212,96.6390303 121.319212,96.6390303 C121.319212,96.6390303 118.761074,99.8872606 113.646273,96.4648466 C113.565875,96.4110507 113.485997,96.357225 113.406639,96.3033462 C113.523573,97.3407695 113.583774,98.4282666 113.583774,99.5464206 C113.583774,103.210334 112.937389,106.545081 111.766634,108.867517 Z M106.088262,87.2075847 C105.426862,85.2216634 104.972624,82.8324949 104.728955,79.8657327 C103.937747,70.2324898 105.295052,67.6226869 93.6284357,59.7224239 C81.9618197,51.8221609 81.220801,66.8831443 84.364964,69.8855986 C87.509127,72.8880528 100.307937,81.7721583 102.518446,85.4853705 C103.0647,86.4029677 103.683338,87.4832723 104.262927,88.662687 C104.803097,87.9959836 105.413737,87.4986571 106.088262,87.2075847 Z M119.573144,134.670791 C119.573144,128.159716 113.979404,122.565976 107.468329,122.565976 C100.957253,122.565976 95.3635133,128.159716 95.3635133,134.670791 C95.3635133,141.181866 100.958125,146.775606 107.468329,146.775606 C113.978533,146.775606 119.573144,141.181866 119.573144,134.670791 Z M98.3899349,139.439539 C97.5649432,138.063972 97.1981834,136.413118 97.1981834,134.670791 C97.1981834,132.011129 98.1155185,129.627626 100.04079,127.610012 C101.966932,125.592397 104.350435,124.492118 107.010097,124.400646 L105.726002,133.662855 L98.3899349,139.439539 Z M117.739345,134.670791 C117.739345,136.413118 117.372585,137.971629 116.639066,139.347196 L109.394471,133.661984 L108.018904,124.399775 C110.678566,124.491247 112.970597,125.591526 114.896739,127.609141 C116.82201,129.627626 117.739345,132.012 117.739345,134.670791 Z M116.088491,140.356874 C114.254692,143.199481 111.045326,144.941807 107.468329,144.941807 C103.891332,144.941807 100.774309,143.199481 98.9405102,140.356874 L107.468329,136.872221 L116.088491,140.356874 Z M107.518951,108.812123 C107.54392,108.812123 107.577675,108.803553 107.63444,108.774514 C107.736694,108.722204 107.861117,108.625454 107.999894,108.478709 C108.358667,108.09934 108.725901,107.479093 109.052005,106.663834 C109.783225,104.835783 110.214428,102.287089 110.214428,99.5464206 C110.214428,96.8057519 109.783225,94.2570584 109.052005,92.4290075 C108.725901,91.613748 108.358667,90.9935017 107.999894,90.6141319 C107.861117,90.467387 107.736694,90.3706378 107.63444,90.3183274 C107.577675,90.2892881 107.54392,90.2807179 107.518951,90.2807179 C107.493982,90.2807179 107.460226,90.2892881 107.403461,90.3183274 C107.301208,90.3706378 107.176784,90.467387 107.038007,90.6141319 C106.679234,90.9935017 106.312,91.613748 105.985896,92.4290075 C105.254676,94.2570584 104.823473,96.8057519 104.823473,99.5464206 C104.823473,102.287089 105.254676,104.835783 105.985896,106.663834 C106.312,107.479093 106.679234,108.09934 107.038007,108.478709 C107.176784,108.625454 107.301208,108.722204 107.403461,108.774514 C107.460226,108.803553 107.493982,108.812123 107.518951,108.812123 Z" id="Combined-Shape"></path>
        </g>
    </g>
</svg>