<?xml version="1.0" encoding="UTF-8"?>
<svg width="76px" height="92px" viewBox="0 0 76 92" version="1.1" xmlns="http://www.w3.org/2000/svg" xmlns:xlink="http://www.w3.org/1999/xlink">
    <!-- Generator: Sketch 42 (36781) - http://www.bohemiancoding.com/sketch -->
    <title>Group 4 Copy</title>
    <desc>Created with Sketch.</desc>
    <defs></defs>
    <g id="v02_salestracker" stroke="none" stroke-width="1" fill="none" fill-rule="evenodd">
        <g id="1_maintenance_Booking" transform="translate(-1279.000000, -1296.000000)" fill="#00ADEF">
            <g id="Group-4-Copy" transform="translate(1240.000000, 1265.000000)">
                <g id="Bookingsummary">
                    <g id="printed_version_form_line" transform="translate(38.500000, 30.800000)">
                        <g id="Ebene_65">
                            <path d="M1.40228846,92.0318 L1.40228846,0.3682 L75.5962308,0.3682 L75.5962308,92.0318 L1.40228846,92.0318 L1.40228846,92.0318 L1.40228846,92.0318 Z M67.0240577,83.9258 L67.0240577,8.4742 L9.97594231,8.4742 L9.97594231,83.9272 L67.0240577,83.9272 L67.0240577,83.9258 L67.0240577,83.9258 Z M19.6394423,24.0954 L19.6394423,18.2 L57.5160385,18.2 L57.5160385,24.0954 L19.6394423,24.0954 L19.6394423,24.0954 L19.6394423,24.0954 Z M19.6394423,35.147 L19.6394423,29.2516 L57.5160385,29.2516 L57.5160385,35.147 L19.6394423,35.147 L19.6394423,35.147 L19.6394423,35.147 Z M19.6394423,46.347 L19.6394423,40.4516 L57.5160385,40.4516 L57.5160385,46.347 L19.6394423,46.347 L19.6394423,46.347 L19.6394423,46.347 Z M19.6394423,57.4 L19.6394423,51.5046 L57.5160385,51.5046 L57.5160385,57.4 L19.6394423,57.4 L19.6394423,57.4 L19.6394423,57.4 Z M19.6394423,68.6 L19.6394423,62.7046 L38.5,62.7046 L38.5,68.6 L19.6394423,68.6 L19.6394423,68.6 L19.6394423,68.6 Z" id="Shape"></path>
                        </g>
                    </g>
                </g>
            </g>
        </g>
    </g>
</svg>