<?xml version="1.0" encoding="UTF-8" standalone="no"?>
<svg width="1022px" height="493px" viewBox="0 0 1022 493" version="1.1" xmlns="http://www.w3.org/2000/svg" xmlns:xlink="http://www.w3.org/1999/xlink">
    <!-- Generator: Sketch 41.2 (35397) - http://www.bohemiancoding.com/sketch -->
    <title>Group 15</title>
    <desc>Created with Sketch.</desc>
    <defs>
        <polygon id="path-1" points="35.6058 21.2257656 35.6058 0.9444375 0.00054 0.9444375 0.00054 21.2257656 35.6058 21.2257656"></polygon>
        <polygon id="path-3" points="1.42108547e-13 114.92543 35.6058 114.92543 35.6058 0.0008984375 1.42108547e-13 0.0008984375"></polygon>
    </defs>
    <g id="v02_salestracker" stroke="none" stroke-width="1" fill="none" fill-rule="evenodd">
        <g id="02.2b_detailsofinformation_partmaterialreplacement-best-scenario" transform="translate(-219.000000, -1118.000000)">
            <g id="Group-2" transform="translate(65.000000, 1118.000000)">
                <g id="Group-15" transform="translate(149.000000, 0.000000)">
                    <g id="serviceIcons">
                        <g id="Group-5">
                            <g id="Filter-oil" transform="translate(327.000000, 0.000000)" fill="#FFFFFF">
                                <path d="M202.302696,13.7301082 C194.078454,5.51552574 185.383836,1.42108547e-14 180.658706,1.42108547e-14 C179.339657,1.42108547e-14 178.274307,0.389789805 177.500155,1.16366517 L121.164314,57.4833007 C120.390636,58.2509965 120,59.3093709 120,60.6280013 C120,65.3575301 125.518268,74.0488921 133.736102,82.2634745 C141.959632,90.478057 150.660658,96 155.37938,96 C156.698429,96 157.757371,95.6099725 158.531761,94.8360972 L214.873772,38.5157486 C218.886691,34.5047164 211.585167,23.00972 202.302696,13.7301082 Z M179.159765,12.2075512 C179.680217,13.1109604 180.237692,14.0274418 180.874909,14.9743458 L126.83091,68.9973113 C126.186574,68.0190339 125.610825,67.0785472 125.133803,66.2119779 L179.159765,12.2075512 Z M182.764249,17.5683494 C183.389361,18.3976034 184.051971,19.2273328 184.752078,20.0627665 L130.645426,74.1539452 C129.932978,73.2937932 129.289591,72.4576465 128.676345,71.6348097 L182.764249,17.5683494 Z M183.71141,7.37273155 C186.913392,8.95755985 192.009935,12.4114778 197.818688,18.2117402 C203.646427,24.0371964 207.095463,29.1191998 208.668924,32.3069199 C205.46718,30.7223292 200.363993,27.2679359 194.561172,21.4681488 C188.733908,15.6367508 185.284872,10.5606893 183.71141,7.37273155 Z M191.223679,27.0457082 C191.997831,27.7884479 192.765338,28.5252457 193.539491,29.2123691 L139.445179,83.2845337 C138.683842,82.6100072 137.909927,81.8675051 137.129367,81.1181105 L191.223679,27.0457082 Z M195.948571,31.2858607 C196.790836,31.9912852 197.626692,32.6351514 198.456616,33.2604788 L144.37512,87.3212349 C143.551367,86.714684 142.71551,86.0705801 141.854497,85.3587383 L195.948571,31.2858607 Z M201.076203,35.1238642 C202.023602,35.7615508 202.939912,36.3307866 203.837948,36.845119 L149.800119,90.8623802 C148.927003,90.391305 147.99147,89.815652 147.006811,89.1722611 L201.076203,35.1238642 Z M123.405843,59.7241168 L176.633209,6.5118665 C176.725765,6.8650541 176.899487,7.27956228 177.02954,7.65723057 C177.128505,7.94814686 177.215366,8.22670397 177.333316,8.53615905 C177.43228,8.77169667 177.518429,9.00675893 177.630209,9.25418039 L123.740708,63.1231314 C123.393977,62.1512713 123.170655,61.283989 123.170655,60.6344186 C123.170655,60.3808175 123.201744,59.9287564 123.405843,59.7241168 Z M132.713946,76.5623233 L186.80802,22.489208 C187.501719,23.263321 188.245019,24.0310168 188.987608,24.7984749 L134.887838,78.8772944 C134.13813,78.0974772 133.394829,77.3233641 132.713946,76.5623233 Z M156.289994,92.5952811 C156.085895,92.7992077 155.633792,92.8305811 155.37938,92.8305811 C154.729348,92.8305811 153.856232,92.6074026 152.883913,92.2611077 L206.804504,38.3612587 C207.671212,38.7453443 208.494966,39.0483821 209.262948,39.2589636 C209.343401,39.2834443 209.45518,39.3518952 209.535633,39.370434 L156.289994,92.5952811 Z" id="Shape"></path>
                                <text id="Filter-Oil,-air,-dus" font-family="CorporateS-Regular, CorpoS" font-size="64" font-weight="normal" letter-spacing="-1.27999997">
                                    <tspan x="16.1143748" y="170">Filter Oil, air, </tspan>
                                    <tspan x="55.1031249" y="242">dust, fuel</tspan>
                                </text>
                                <text id="1" font-family="CorporateS-Regular, CorpoS" font-size="40" font-weight="normal" letter-spacing="-0.800000012">
                                    <tspan x="282.235938" y="223">1</tspan>
                                </text>
                            </g>
                            <g id="spark-plug" transform="translate(119.000000, 300.000000)">
                                <g id="Page-1" transform="translate(132.000000, 56.500000) rotate(40.000000) translate(-132.000000, -56.500000) translate(114.000000, -1.000000)">
                                    <g id="Group-3" transform="translate(-0.000000, 35.862930)">
                                        <mask id="mask-2" fill="white">
                                            <use xlink:href="#path-1"></use>
                                        </mask>
                                        <g id="Clip-2"></g>
                                        <path d="M32.90634,16.6131875 C32.16114,17.5529531 31.01994,18.5304531 29.49354,18.5304531 C28.30194,18.5304531 27.16434,17.9069375 26.21214,16.8144375 C26.17794,16.6383438 26.10954,16.4748281 26.00514,16.3202969 L26.00514,5.85170313 C26.10954,5.69717188 26.17974,5.53365625 26.21214,5.35576563 C27.16614,4.26326563 28.30374,3.63975 29.49354,3.63975 C31.01994,3.63975 32.16114,4.61725 32.90634,5.55701563 L32.90634,16.6131875 Z M12.30174,16.2214688 L12.30174,5.95053125 C13.85334,4.4663125 15.88734,3.63975 18.05814,3.63975 C20.00574,3.63975 21.82554,4.32795313 23.30514,5.53185938 L23.30514,16.6401406 C21.82554,17.8440469 20.00754,18.5304531 18.05814,18.5304531 C15.88554,18.5304531 13.85334,17.7038906 12.30174,16.2214688 L12.30174,16.2214688 Z M6.11154,18.5304531 C4.58514,18.5304531 3.44394,17.5529531 2.70054,16.6131875 L2.70054,5.55701563 C3.44394,4.61725 4.58514,3.63975 6.11154,3.63975 C7.38954,3.63975 8.60994,4.34771875 9.60174,5.59834375 L9.60174,16.5718594 C8.61174,17.8224844 7.39134,18.5304531 6.11154,18.5304531 L6.11154,18.5304531 Z M35.35794,4.33154688 C33.80814,2.14654688 31.72554,0.9444375 29.49354,0.9444375 C27.69174,0.9444375 26.00334,1.70451563 24.60834,3.0935 C22.72374,1.7063125 20.45394,0.9444375 18.05814,0.9444375 C15.53634,0.9444375 13.15134,1.78178125 11.21094,3.31451563 C9.77814,1.78357813 8.00694,0.9444375 6.11154,0.9444375 C3.87774,0.9444375 1.79694,2.14654688 0.24714,4.33154688 C0.08694,4.55975 0.00054,4.83107813 0.00054,5.10959375 L0.00054,17.0606094 C0.00054,17.339125 0.08694,17.6104531 0.24714,17.8386563 C1.79514,20.0236563 3.87774,21.2257656 6.11154,21.2257656 C8.00694,21.2257656 9.77814,20.386625 11.21274,18.8556875 C13.15134,20.3884219 15.53454,21.2257656 18.05814,21.2257656 C20.45394,21.2257656 22.72374,20.4656875 24.60654,19.0767031 C26.00154,20.4674844 27.69174,21.2257656 29.49354,21.2257656 C31.72734,21.2257656 33.80994,20.0236563 35.35794,17.8404531 C35.51994,17.61225 35.60634,17.339125 35.60634,17.0606094 L35.60634,5.10959375 C35.60634,4.83107813 35.51994,4.55975 35.35794,4.33154688 L35.35794,4.33154688 Z" id="Fill-1" fill="#FFFFFF" mask="url(#mask-2)"></path>
                                    </g>
                                    <mask id="mask-4" fill="white">
                                        <use xlink:href="#path-3"></use>
                                    </mask>
                                    <g id="Clip-5"></g>
                                    <path d="M6.9498,14.6508203 L28.656,14.6508203 L28.656,12.9150391 L6.9498,12.9150391 L6.9498,14.6508203 Z M17.8038,10.0831641 C18.2556,10.0831641 18.6948,10.1370703 19.1232,10.2197266 L16.4826,10.2197266 C16.911,10.1370703 17.3502,10.0831641 17.8038,10.0831641 L17.8038,10.0831641 Z M6.9498,36.8080859 L28.656,36.8080859 L28.656,35.0723047 L6.9498,35.0723047 L6.9498,36.8080859 Z M6.9498,19.0819141 L28.656,19.0819141 L28.656,17.3461328 L6.9498,17.3461328 L6.9498,19.0819141 Z M6.9498,23.5130078 L28.656,23.5130078 L28.656,21.7772266 L6.9498,21.7772266 L6.9498,23.5130078 Z M6.9498,32.3769922 L28.656,32.3769922 L28.656,30.6412109 L6.9498,30.6412109 L6.9498,32.3769922 Z M6.9498,27.9441016 L28.656,27.9441016 L28.656,26.2083203 L6.9498,26.2083203 L6.9498,27.9441016 Z M24.912,0.0008984375 L15.5736,0.0008984375 C14.8284,0.0008984375 14.2236,0.602851562 14.2236,1.34855469 C14.2236,2.09246094 14.8284,2.69621094 15.5736,2.69621094 L24.912,2.69621094 C26.9748,2.69621094 28.656,4.72667969 28.656,7.22433594 L28.656,10.2197266 L24.4566,10.2197266 C23.5602,9.21707031 22.3974,8.44800781 21.0762,7.96824219 C21.0708,7.95027344 21.0744,7.93410156 21.069,7.91792969 C20.4264,6.15878906 19.2042,5.10941406 17.8038,5.10941406 C16.4016,5.10941406 15.1812,6.15878906 14.5368,7.91792969 C14.5314,7.93410156 14.535,7.95027344 14.5296,7.96824219 C13.2102,8.44800781 12.0474,9.21707031 11.1492,10.2197266 L5.5998,10.2197266 C4.8546,10.2197266 4.2498,10.8216797 4.2498,11.5673828 L4.2498,38.1539453 C4.2498,38.8978516 4.8546,39.5016016 5.5998,39.5016016 C5.7366,39.5016016 5.8608,39.4620703 5.985,39.4243359 C6.1092,39.4620703 6.2316,39.5016016 6.3684,39.5016016 L29.7486,39.5016016 C29.7954,39.5016016 29.8332,39.4800391 29.8782,39.4764453 C29.9214,39.4800391 29.961,39.5016016 30.006,39.5016016 C30.7512,39.5016016 31.356,38.8978516 31.356,38.1539453 L31.356,11.5673828 L31.356,7.22433594 C31.356,3.24066406 28.4634,0.0008984375 24.912,0.0008984375 L24.912,0.0008984375 Z" id="Fill-4" fill="#FFFFFF" mask="url(#mask-4)"></path>
                                    <path d="M24.92406,79.7618437 L10.68246,79.7618437 L10.25226,57.088875 L25.35426,57.088875 L24.92406,79.7618437 Z M25.38666,104.797703 L10.21986,104.797703 C9.52146,104.797703 8.74386,103.852547 8.74386,102.497703 C8.74386,101.577703 9.11286,100.875125 9.56286,100.503172 L26.04366,100.503172 C26.49366,100.875125 26.86266,101.577703 26.86266,102.497703 C26.86266,103.852547 26.08506,104.797703 25.38666,104.797703 L25.38666,104.797703 Z M15.70806,112.229578 L19.89666,112.229578 L19.89666,107.491219 L15.70806,107.491219 L15.70806,112.229578 Z M26.56386,91.7919219 L9.04086,91.7919219 L8.70966,88.4730938 L26.89506,88.4730938 L26.56386,91.7919219 Z M25.38666,97.5077813 L10.21986,97.5077813 C10.01466,97.5077813 9.81666,97.5455156 9.61866,97.5796563 L9.31086,94.4872344 L26.29566,94.4872344 L25.98786,97.5796563 C25.78986,97.5455156 25.59186,97.5077813 25.38666,97.5077813 L25.38666,97.5077813 Z M27.49626,82.4571562 L27.16506,85.7777812 L8.44146,85.7777812 L8.11026,82.4571562 L9.35766,82.4571562 L26.24886,82.4571562 L27.49626,82.4571562 Z M29.49426,57.088875 C30.23946,57.088875 30.84426,56.485125 30.84426,55.7412187 C30.84426,54.9973125 30.23946,54.3935625 29.49426,54.3935625 L6.11226,54.3935625 C5.36706,54.3935625 4.76226,54.9973125 4.76226,55.7412187 C4.76226,56.485125 5.36706,57.088875 6.11226,57.088875 L7.55046,57.088875 L7.98066,79.7618437 L6.61986,79.7618437 C6.23826,79.7618437 5.87466,79.9235625 5.61906,80.2056719 C5.36346,80.4859844 5.23746,80.8633281 5.27706,81.2424687 L7.07346,99.2525469 C6.43986,100.127625 6.04386,101.254266 6.04386,102.497703 C6.04386,105.252312 7.91766,107.493016 10.21986,107.493016 L13.00806,107.493016 L13.00806,113.577234 C13.00806,114.321141 13.61286,114.924891 14.35806,114.924891 L21.24666,114.924891 C21.99186,114.924891 22.59666,114.321141 22.59666,113.577234 L22.59666,107.493016 L25.38666,107.493016 C27.68886,107.493016 29.56266,105.252312 29.56266,102.497703 C29.56266,101.254266 29.16666,100.127625 28.53306,99.2525469 L30.32946,81.2424687 C30.36726,80.8633281 30.24306,80.4859844 29.98746,80.2056719 C29.73186,79.9235625 29.36826,79.7618437 28.98666,79.7618437 L27.62586,79.7618437 L28.05606,57.088875 L29.49426,57.088875 Z" id="Fill-6" fill="#FFFFFF" mask="url(#mask-4)"></path>
                                </g>
                                <text id="Spark-Plug" font-family="CorporateS-Regular, CorpoS" font-size="64" font-weight="normal" letter-spacing="-1.27999997" fill="#FFFFFF">
                                    <tspan x="0.134374857" y="179">Spark Plug</tspan>
                                </text>
                                <text id="3" font-family="CorporateS-Regular, CorpoS" font-size="40" font-weight="normal" letter-spacing="-0.800000012" fill="#FFFFFF">
                                    <tspan x="268.235938" y="161">3</tspan>
                                </text>
                            </g>
                            <g id="engineoil" fill="#FFFFFF">
                                <path d="M149.994725,79.6528966 L149.988923,80.6799347 C150.001252,81.547563 149.893919,109.621725 149.887634,110.813528 C149.887634,114.712135 146.727603,117.894737 142.841626,117.894737 L93.0460071,117.894737 C89.1607556,117.894737 86,114.712135 86,110.80793 L86,35.8394957 C86,29.1518221 90.1637365,24.201352 97.1340789,22.5909464 C100.925052,21.7101759 105.006355,20.8987671 109.131896,20.8987671 C116.474277,20.8987671 126.005859,23.7450258 126.403038,23.8650091 L126.90755,24.0176046 L127.229065,24.4354778 C150.165393,54.7413793 150.045732,71.5646057 149.994725,79.6528966 Z M124.977495,26.8254102 C122.940107,26.2549416 115.086687,24.1441591 109.131896,24.1441591 C105.327869,24.1441591 101.461232,24.9173582 97.8530148,25.748237 C92.3717932,27.0222998 89.2298933,30.6987071 89.2298933,35.8394957 L89.2298933,110.80793 C89.2298933,112.924553 90.9397231,114.649101 93.0460071,114.649101 L142.841626,114.649101 C144.948636,114.649101 146.65774,112.924553 146.65774,110.80793 C146.695935,100.691117 146.7716,81.3956976 146.759271,80.7050023 L146.765073,79.6268555 C146.81608,71.9384281 146.923171,55.9774757 124.977495,26.8254102 Z M139.839211,103.036269 L99.7833118,103.036269 C97.3990263,103.036269 95.4559171,101.083679 95.4559171,98.6813346 L95.4559171,52.9155877 C95.4559171,50.5134865 97.3990263,48.5608971 99.7833118,48.5608971 L129.159846,48.5608971 C142.942916,48.5608971 144.134938,74.5877973 144.172891,82.5621891 L144.172891,98.6813346 C144.172891,101.083679 142.230023,103.036269 139.839211,103.036269 Z M140.942997,82.5685168 C140.930185,79.4243684 140.46967,51.8062891 129.159846,51.8062891 L99.7833118,51.8062891 C99.1779938,51.8062891 98.6855687,52.3076395 98.6855687,52.9155877 L98.6855687,98.6813346 C98.6855687,99.2895262 99.1779938,99.7908766 99.7833118,99.7908766 L139.839211,99.7908766 C140.444529,99.7908766 140.942997,99.2895262 140.942997,98.6813346 L140.942997,82.5685168 Z M118.965653,94.909768 C113.338904,94.909768 108.765659,90.3141371 108.765659,84.6598295 C108.765659,79.7091159 116.594422,61.485759 117.483301,59.4253549 L118.965653,56.0027866 L120.448005,59.4253549 C121.33761,61.485759 129.159846,79.7091159 129.159846,84.6598295 C129.159846,90.3141371 124.586601,94.909768 118.965653,94.909768 Z M118.965653,64.2110609 C115.755341,71.9255293 111.995311,81.8649227 111.995311,84.6598295 C111.995311,88.5207143 115.124399,91.664376 118.965653,91.664376 C122.807633,91.664376 125.930194,88.5207143 125.930194,84.6598295 C125.930194,81.8649227 122.176449,71.9255293 118.965653,64.2110609 Z M109.812637,18.8639172 C102.691207,18.8639172 96.9068429,20.8605574 96.8500339,20.8800273 L94.7055549,21.6276721 L94.7055549,4.08868287 L95.5252966,3.61945784 C95.7839588,3.47319007 101.972271,0 109.812637,0 C117.628587,0 124.144941,3.45445028 124.422701,3.60071804 L125.274111,4.06264185 L125.274111,21.5894624 L123.154531,20.8858683 C123.091437,20.8668851 116.947121,18.8639172 109.812637,18.8639172 Z M122.044217,6.05344101 C120.133018,5.18483928 115.256631,3.24539203 109.812637,3.24539203 C104.39451,3.24539203 99.7514021,5.16634286 97.9349648,6.02813012 L97.9349648,17.178309 C100.4012,16.5253366 104.760021,15.6182818 109.812637,15.6182818 C114.935116,15.6182818 119.501834,16.5564885 122.044217,17.2033766 L122.044217,6.05344101 Z" id="Shape"></path>
                                <text id="Engine-oil" font-family="CorporateS-Regular, CorpoS" font-size="64" font-weight="normal" letter-spacing="-1.27999997">
                                    <tspan x="0.321874857" y="181">Engine oil</tspan>
                                </text>
                            </g>
                            <g id="brake-fluid" transform="translate(729.000000, 0.000000)" fill="#FFFFFF">
                                <text id="Brake-Fluid" font-family="CorporateS-Regular, CorpoS" font-size="64" font-weight="normal" letter-spacing="-1.27999997">
                                    <tspan x="0.0712498426" y="182">Brake Fluid</tspan>
                                </text>
                                <text id="2" font-family="CorporateS-Regular, CorpoS" font-size="40" font-weight="normal" letter-spacing="-0.800000012">
                                    <tspan x="279.235938" y="164">2</tspan>
                                </text>
                                <g id="Brakefluid" transform="translate(76.000000, 0.000000)">
                                    <path d="M102.502703,43 C97.2606088,43 93,38.7477372 93,33.5158978 C93,28.9350827 100.293573,12.0733056 101.121687,10.166847 L102.502703,7 L103.883718,10.166847 C104.712508,12.0733056 112,28.9350827 112,33.5158978 C112,38.7477372 107.739391,43 102.502703,43 Z M102.502703,14.5949833 C99.5118534,21.733056 96.0088663,30.9298158 96.0088663,33.5158978 C96.0088663,37.088312 98.9240434,39.9970913 102.502703,39.9970913 C106.082037,39.9970913 108.991134,37.088312 108.991134,33.5158978 C108.991134,30.9298158 105.494002,21.733056 102.502703,14.5949833 Z" id="Combined-Shape"></path>
                                    <g id="Page-1" transform="translate(5.000000, 7.000000)">
                                        <path d="M106.128281,34.6953541 C106.33584,35.2288698 106.535171,35.7669621 106.726148,36.3094915 C111.311885,49.3385085 110.531066,63.3646441 104.527951,75.8079661 C95.6071311,94.2896949 77.0207377,105.092712 57.6913934,105.092712 C50.1627049,105.092712 42.5240164,103.456 35.2964754,99.9939322 C23.3533607,94.2735254 14.2431967,84.4388814 9.45729508,72.1949831 L8.86040984,72.4051864 C8.29237705,72.6046102 7.69729508,72.7034237 7.10762295,72.7034237 C6.2745082,72.7034237 5.44860656,72.5075932 4.70385246,72.121322 C3.45237705,71.4745424 2.55254098,70.3768136 2.1702459,69.0293559 C-1.65270492,55.5314237 -0.395819672,41.1297966 5.71008197,28.4762712 C11.8159836,15.8245424 22.320082,5.85155932 35.287459,0.397050847 C36.5786066,-0.143728814 38.0031967,-0.132949153 39.2907377,0.434779661 C40.6035246,1.01328814 41.6331967,2.12718644 42.1128689,3.49081356 L42.3238525,4.08728814 C54.9089344,0.163491525 68.3054918,1.11210169 80.2504098,6.83250847 C83.3948282,8.33850977 86.3436198,10.1290631 89.0691466,12.1733627 C88.6256716,13.3452581 88.1884157,14.527839 87.770842,15.6942719 C84.903885,13.4083823 81.754924,11.4314894 78.3633942,9.80754061 C67.1937497,4.45528763 54.675167,3.55509482 42.9074084,7.1920911 L43.690956,10.4199324 C54.8624185,6.98941902 66.7374377,7.85882052 77.3380557,12.9339518 C80.7707302,14.5779964 83.891941,16.5692656 86.6814673,18.8436962 C86.3209144,19.9291083 85.9907631,20.9758301 85.7034595,21.9590549 C82.8599164,19.4514938 79.6271621,17.2898884 76.0395097,15.5716698 C66.4376001,10.9709929 55.6754148,10.1639507 45.5418619,13.240016 L47.8175109,19.7053002 C48.7424984,22.3322134 47.4600885,25.2579648 44.8359976,26.514159 C38.6340907,29.470331 33.7792532,34.3036365 30.7959438,40.4897665 C27.8090422,46.6723176 27.0546834,53.4686502 28.6083033,60.1415107 C29.2674692,62.9670529 27.7749165,65.7925951 25.1346607,66.714162 L18.6848932,68.9670801 C22.6057627,78.7678999 29.9176546,86.6575867 39.5213604,91.2564742 C60.4548165,101.284554 85.69171,92.4733004 95.7623997,71.6065194 C100.779656,61.2087553 101.099596,49.7504168 97.5666545,39.6292416 C98.6421543,39.529424 99.6766851,39.2852701 100.650836,38.9162542 C104.334655,49.7710065 103.800725,62.0863659 98.3000488,73.4893892 C90.339132,89.9826601 74.0490051,98.620338 56.8000488,98.620338 C50.0826275,98.6221492 43.6514807,97.2074101 37.2225974,94.0722814 C27.9648437,89.5576172 19.8903989,80.8331049 15.5999756,70 L11.9999985,71.2398128 C16.5013071,82.6706313 25.0294325,91.8482508 36.195441,97.1968813 C60.3763397,108.779845 89.511223,98.6006025 101.137179,74.5091247 C106.754773,62.8674507 107.498109,49.7463829 103.233695,37.5525105 C104.35241,36.7725493 105.332408,35.8049787 106.128281,34.6953541 Z M6.36467213,68.932339 C6.11221311,68.8029831 5.78040984,68.5424746 5.64336066,68.0537966 L5.64155738,68.0537966 C2.05844262,55.4002712 3.23598361,41.8969492 8.96139344,30.0357288 C14.685,18.1709153 24.5327049,8.82135593 36.6904098,3.70820339 C36.8869672,3.62555932 37.0727049,3.59322034 37.2422131,3.59322034 C37.4766393,3.59322034 37.6786066,3.65430508 37.830082,3.72077966 C38.237623,3.90044068 38.5586066,4.25077966 38.7118852,4.6819661 L39.5017213,6.92772881 L39.5017213,6.93132203 C39.5017213,6.93311864 39.5035246,6.93311864 39.5035246,6.93491525 L41.4727049,12.5259661 L41.4727049,12.5313559 C41.4727049,12.5331525 41.4745082,12.5349492 41.4745082,12.5367458 L44.3687705,20.7598305 C44.682541,21.6509492 44.177623,22.7091525 43.220082,23.1654915 C36.3441803,26.4443051 30.7377869,32.0245763 27.4305738,38.8804407 C24.1215574,45.7345085 23.2469672,53.5821017 24.9727049,60.9805424 C25.212541,62.0117966 24.7004098,63.0628136 23.8059836,63.3754237 L7.66483607,69.0149831 C7.23565574,69.1623051 6.76139344,69.1353559 6.36467213,68.932339 Z" id="Combined-Shape"></path>
                                        <path d="M39.1845654,43.4777345 C41.7297888,38.1807688 46.1851606,34.194917 51.7285292,32.250399 C54.1112915,31.4135178 56.5711819,31 59.0228671,31 C62.2770115,31 65.5180278,31.7318608 68.5375063,33.1840958 C79.4667055,38.438397 84.0845383,51.6036868 78.8299894,62.5340116 C73.5770815,73.4626954 60.4111708,78.0868742 49.4786895,72.8292912 C44.1831151,70.2825468 40.1954343,65.8273852 38.2508245,60.282637 C36.3062147,54.7395299 36.637701,48.7714183 39.1845654,43.4777345 M48.1784764,75.5351479 C51.6607089,77.2097545 55.3392836,78 58.9675557,78 C68.2800126,78 77.235484,72.7765905 81.5339155,63.837242 C87.5053115,51.4156205 82.2576227,36.4528808 69.8377681,30.4814155 C63.8193149,27.5881756 57.036588,27.2117136 50.7341689,29.4218049 C44.4366179,31.6318961 39.3722899,36.1624209 36.4807063,42.1793213 C33.5875001,48.1962217 33.2126652,54.9790275 35.4211081,61.2782744 C37.629551,67.5791439 42.1616458,72.641908 48.1784764,75.5351479" id="Fill-4"></path>
                                        <path d="M54.9816669,51.1289303 C55.7698787,49.4893938 57.4160689,48.5294118 59.1260879,48.5294118 C59.7910953,48.5294118 60.4679778,48.6748186 61.1062661,48.9819535 C63.3862915,50.0784399 64.3496615,52.824849 63.2526962,55.103879 C62.7227685,56.2077841 61.7935394,57.0386804 60.6371984,57.4452261 C59.4808575,57.8488043 58.2339686,57.7835196 57.1295813,57.2508557 C54.849556,56.1543693 53.886186,53.4079602 54.9816669,51.1289303 M55.9680395,59.3058754 C56.9277701,59.7677088 57.9589992,60 58.9943533,60 C59.7753375,60 60.5590717,59.8666731 61.3180563,59.6013938 C63.0821456,58.9814925 64.499742,57.7141997 65.3096006,56.0290577 C66.9815668,52.5515624 65.5117215,48.3620739 62.0344168,46.6893025 C58.5543622,45.01928 54.3648219,46.4886249 52.6901058,49.9647457 C51.0181396,53.442241 52.4893599,57.633104 55.9680395,59.3058754 Z" id="Fill-6"></path>
                                        <path d="M48.0054373,45 C48.4939796,45 48.9885657,44.8811388 49.4458816,44.6293143 C50.8953917,43.8315343 51.4262408,42.0022811 50.6294635,40.5537865 C49.8326863,39.1042846 48.0064446,38.5734386 46.5539126,39.3712186 C45.1054099,40.1689987 44.5735535,41.9962373 45.3703307,43.4467464 C45.9172967,44.438935 46.9457538,45 48.0054373,45 Z" id="Fill-12"></path>
                                        <path d="M70.0054373,45 C70.4939796,45 70.9885657,44.8811388 71.4458816,44.6293143 C72.8953917,43.8315343 73.4262408,42.0022811 72.6294635,40.5537865 C71.8326863,39.1042846 70.0064446,38.5734386 68.5539126,39.3712186 C67.1054099,40.1689987 66.5735535,41.9962373 67.3703307,43.4467464 C67.9172967,44.438935 68.9457538,45 70.0054373,45 Z" id="Fill-12-Copy"></path>
                                        <path d="M70.0054373,67 C70.4939796,67 70.9885657,66.8811388 71.4458816,66.6293143 C72.8953917,65.8315343 73.4262408,64.0022811 72.6294635,62.5537865 C71.8326863,61.1042846 70.0064446,60.5734386 68.5539126,61.3712186 C67.1054099,62.1689987 66.5735535,63.9962373 67.3703307,65.4467464 C67.9172967,66.438935 68.9457538,67 70.0054373,67 Z" id="Fill-12-Copy-2"></path>
                                        <path d="M48.0054373,67 C48.4939796,67 48.9885657,66.8811388 49.4458816,66.6293143 C50.8953917,65.8315343 51.4262408,64.0022811 50.6294635,62.5537865 C49.8326863,61.1042846 48.0064446,60.5734386 46.5539126,61.3712186 C45.1054099,62.1689987 44.5735535,63.9962373 45.3703307,65.4467464 C45.9172967,66.438935 46.9457538,67 48.0054373,67 Z" id="Fill-12-Copy-3"></path>
                                    </g>
                                </g>
                            </g>
                            <g id="coolan" transform="translate(620.000000, 300.000000)" fill="#FFFFFF">
                                <g id="coolant" transform="translate(42.000000, 0.000000)">
                                    <path d="M53.600001,75 C50.9282076,74.9987287 48.6868027,72.9458921 48.6024444,70.4226878 C48.5516682,68.8974256 49.2867137,67.4334383 50.5687446,66.5059243 L52.0288952,65.8382566 L52.0288952,6 L55.1711069,6 L55.1711069,65.8385108 L56.6312574,66.5059243 C57.8823929,67.411064 58.5999756,68.7822491 58.5999756,70.2678479 C58.5999756,72.8449537 56.385705,74.9677099 53.6636727,74.9997457 L53.600001,75 Z" id="Fill-1"></path>
                                    <path d="M48.2314197,2.6779318 L59.0894269,2.6779318 L59.0894269,61.6518705 L59.9162799,62.2896023 L60.1130219,62.4412958 C62.4831294,64.2693571 63.9730756,67.0176406 64.2518892,69.9768245 C64.2752835,70.258928 64.2833373,70.4067517 64.28909,70.5549625 C64.2925416,70.6381617 64.2948427,70.7217479 64.2963767,70.8057211 C64.2982943,70.9330352 64.2982943,71.0603494 64.2956097,71.1880506 C64.2940756,71.268928 64.2929251,71.3498054 64.289857,71.4299088 C64.2864054,71.5111732 64.2810362,71.5916636 64.2760505,71.672154 C64.2695308,71.7723801 64.2626276,71.8726061 64.2534233,71.9720582 C64.2461366,72.0498398 64.2373158,72.1276215 64.228495,72.2050161 C64.2173731,72.3017594 64.2054842,72.3985027 64.1920613,72.494859 C64.1797889,72.5803801 64.1659824,72.6651272 64.1517925,72.7498743 C64.137986,72.8326866 64.1234125,72.9154989 64.1076885,72.9979241 C64.0881294,73.100472 64.0662692,73.202633 64.0436419,73.3044069 C63.9719251,73.6105027 63.938943,73.7370429 63.9040434,73.8624222 C62.6794878,78.0719165 59.0575953,81.2017556 54.7396276,81.6556751 C54.7016599,81.6595448 54.6633086,81.6626406 54.6249573,81.6661234 C54.4964806,81.6781195 54.3676204,81.6885678 54.2383767,81.6955333 C54.1685774,81.6994031 54.0987781,81.7013379 54.0285953,81.7036598 C53.9062548,81.7079165 53.7839143,81.7129471 53.6604233,81.7129471 C53.5369323,81.7129471 53.4145918,81.7079165 53.2918677,81.7036598 C53.2220685,81.7013379 53.1518857,81.6994031 53.0824699,81.6955333 C52.9528427,81.6885678 52.8239824,81.6781195 52.6958892,81.6661234 C52.657538,81.6626406 52.6191867,81.6595448 52.581219,81.6556751 C48.2632513,81.2017556 44.6409753,78.0719165 43.4421151,73.952587 C43.3815201,73.7370429 43.3489215,73.6105027 43.317857,73.4835755 C43.2541939,73.202633 43.2327172,73.100472 43.2127746,72.9979241 C43.1970505,72.9154989 43.1828606,72.8326866 43.1690541,72.7498743 C43.1548642,72.6651272 43.1410577,72.5803801 43.1287853,72.494859 C43.1149789,72.3985027 43.1034735,72.3017594 43.0923516,72.2050161 C43.0835308,72.1276215 43.07471,72.0498398 43.0674233,71.9720582 C43.058219,71.8726061 43.0513158,71.7723801 43.0447961,71.672154 C43.0394269,71.5916636 43.0344412,71.5111732 43.0309896,71.4299088 C43.027538,71.3498054 43.0263875,71.268928 43.0248534,71.1880506 C43.0225523,71.0603494 43.0221688,70.9330352 43.0244699,70.8057211 C43.0256204,70.7217479 43.028305,70.6381617 43.0313731,70.5549625 C43.0375093,70.4067517 43.0455631,70.258928 43.057452,70.1114912 C43.347771,67.0176406 44.8373337,64.2693571 47.2078247,62.4412958 L47.3715846,62.3151425 L48.2314197,61.6518705 L48.2314197,2.6779318 Z M66.8083839,72.5823149 C66.8237244,72.4542268 66.8382978,72.3261387 66.8498032,72.1968897 C66.859391,72.0900851 66.8666778,71.9825065 66.8739645,71.8753149 C66.8812513,71.7619318 66.888538,71.6485487 66.8931401,71.5343916 C66.9019609,71.3529011 66.8992763,71.2983379 66.9004269,71.2426138 C66.9019609,71.15361 66.9069466,71.065767 66.9069466,70.9763762 C66.8988928,70.6350659 66.8950577,70.5050429 66.889305,70.3750199 C66.8831688,70.2322268 66.874348,70.0902077 66.8636097,69.9489625 C66.8540219,69.8201004 66.8429,69.6920123 66.8294771,69.5643111 C66.8149036,69.4238398 66.7976455,69.2841425 66.7784699,69.1448322 C66.7615953,69.0186789 66.7435703,68.8929126 66.7228606,68.7683073 C66.6998498,68.6297709 66.6741545,68.4923954 66.6473086,68.3557939 C66.6227638,68.2323494 66.598219,68.109292 66.5702226,67.9870084 C66.5395416,67.8511808 66.505409,67.7169011 66.4708928,67.5830084 C66.4394448,67.4626598 66.4079968,67.3423111 66.3734806,67.2235103 C66.3351294,67.0903916 66.2933265,66.9592077 66.2507566,66.8280238 C66.2127889,66.7107709 66.1752047,66.593518 66.1341688,66.477813 C66.0877638,66.34779 66.0382907,66.2200889 65.9884341,66.0920008 C65.9439466,65.9782307 65.9002262,65.8644605 65.8530541,65.7522383 C65.7993624,65.6256981 65.742219,65.5010927 65.6850756,65.3761004 C65.634452,65.266587 65.5853624,65.1562996 65.5320541,65.0483341 C65.4714591,64.9248897 65.4066455,64.804154 65.3422154,64.6826444 C65.2862226,64.5770008 65.2309968,64.4705831 65.1723194,64.3664874 C65.1044376,64.2465257 65.0323373,64.1292728 64.9606204,64.011633 C64.8992584,63.910633 64.839814,63.808859 64.7757674,63.7094069 C64.7002154,63.592154 64.6200613,63.4779969 64.5410577,63.3630659 C64.4754771,63.2678705 64.4114305,63.1715142 64.3435487,63.0778667 C64.2603265,62.9633226 64.1721186,62.8526483 64.0854448,62.7412 C64.016029,62.6518092 63.9485308,62.5604835 63.8764305,62.4730276 C63.784771,62.3608054 63.6881258,62.2528398 63.5930147,62.1437134 C63.5209143,62.0616751 63.4511151,61.9773149 63.3770971,61.8968245 C63.2735487,61.7842153 63.1653982,61.6762498 63.0583982,61.5675103 C62.9874484,61.4951464 62.9187996,61.4208475 62.8463158,61.3504184 C62.7232082,61.2308437 62.5951151,61.1166866 62.4674054,61.0017556 C62.4060434,60.9468054 62.3473659,60.8891464 62.2852369,60.8353571 C62.0930971,60.6685716 61.8967387,60.5075908 61.6953946,60.3520276 L61.6953946,4.75946054 L61.6953946,0.0484490421 L45.625452,0.0484490421 L45.625452,4.75946054 L45.625452,60.3520276 C45.4241079,60.5075908 45.2273659,60.6685716 45.0356097,60.8353571 C44.9730971,60.8891464 44.9144197,60.9468054 44.8534412,61.0017556 C44.7257315,61.1166866 44.5976384,61.2308437 44.4745308,61.3504184 C44.402047,61.4208475 44.3333982,61.4951464 44.2624484,61.5675103 C44.1554484,61.6762498 44.0469143,61.7842153 43.9437495,61.8968245 C43.8697315,61.9773149 43.7999323,62.0616751 43.7278319,62.1437134 C43.6323373,62.2528398 43.5360756,62.3608054 43.4440326,62.4730276 C43.3723158,62.5604835 43.3048176,62.6518092 43.2354018,62.7412 C43.1483444,62.8526483 43.0605201,62.9633226 42.9772978,63.0778667 C42.9094161,63.1715142 42.8453695,63.2678705 42.7797889,63.3630659 C42.7007853,63.4779969 42.6206312,63.592154 42.5450792,63.7094069 C42.4810326,63.808859 42.4212047,63.910633 42.3598427,64.011633 C42.2885093,64.1292728 42.216409,64.2465257 42.1485272,64.3664874 C42.0894663,64.4705831 42.034624,64.5770008 41.9786312,64.6826444 C41.9142011,64.804154 41.8493875,64.9248897 41.7887925,65.0483341 C41.7354842,65.1562996 41.6860111,65.266587 41.635771,65.3761004 C41.5786276,65.5010927 41.5211007,65.6256981 41.4677925,65.7522383 C41.4202369,65.8644605 41.3765165,65.9782307 41.3324125,66.0920008 C41.2825559,66.2200889 41.2326993,66.34779 41.1866778,66.477813 C41.1456419,66.593518 41.1080577,66.7107709 41.07009,66.8280238 C41.0275201,66.9592077 40.9857172,67.0903916 40.9469824,67.2235103 C40.9124663,67.3423111 40.8814018,67.4626598 40.8499538,67.5830084 C40.8150541,67.7169011 40.781305,67.8511808 40.7502405,67.9870084 C40.7226276,68.109292 40.6976993,68.2323494 40.673538,68.3557939 C40.6463086,68.4923954 40.6206133,68.6297709 40.597986,68.7683073 C40.5772763,68.8929126 40.5592513,69.0186789 40.5419932,69.1448322 C40.5232011,69.2841425 40.505943,69.4238398 40.490986,69.5643111 C40.4779466,69.6920123 40.4668247,69.8201004 40.4572369,69.9489625 C40.4464986,70.0902077 40.4376778,70.2322268 40.4315416,70.3750199 C40.4257889,70.5050429 40.4219538,70.6350659 40.4200362,70.7662498 C40.4139,71.065767 40.4185022,71.15361 40.4204197,71.2426138 C40.4219538,71.4508054 40.4257889,71.4925985 40.4277065,71.5343916 C40.4323086,71.6485487 40.4392118,71.7619318 40.4468821,71.8753149 C40.4541688,71.9825065 40.461072,72.0900851 40.4710434,72.1968897 C40.4825487,72.3261387 40.4971222,72.4542268 40.5120792,72.5823149 C40.5220505,72.6651272 40.5316384,72.7483264 40.5431437,72.8307517 C40.565771,72.9932805 40.5918498,73.1546483 40.6198462,73.3152421 C41.6779573,79.0490238 46.1838462,83.4229816 51.8280004,84.211633 C52.0496706,84.2418169 52.2272369,84.2627134 52.4063373,84.2793533 C52.4723014,84.2859318 52.5382656,84.2917364 52.6046133,84.297154 C52.7411437,84.3079893 52.8776742,84.3168897 53.0153552,84.3234682 C53.115452,84.3284989 53.2151652,84.3323686 53.3156455,84.3350774 C53.3747065,84.3362383 53.4333839,84.340882 53.4924448,84.3416559 C53.5488211,84.3424299 53.6044305,84.3393341 53.6604233,84.3393341 C53.7164161,84.3393341 53.7720254,84.3424299 53.8284018,84.3416559 C53.8874627,84.340882 53.9457566,84.3362383 54.0048176,84.3350774 C54.1052978,84.3323686 54.2053946,84.3284989 54.3054914,84.3234682 C54.4427889,84.3168897 54.5797029,84.3079893 54.7162333,84.297154 C54.782581,84.2917364 54.8485452,84.2859318 54.9145093,84.2793533 C55.0932262,84.2627134 55.271176,84.2418169 55.4479753,84.2178245 C61.1370004,83.4229816 65.6425057,79.0490238 66.6787566,73.4398475 C66.7289968,73.1546483 66.7550756,72.9932805 66.7773194,72.8307517 C66.7888247,72.7483264 66.7984125,72.6651272 66.8083839,72.5823149 Z" id="Fill-3"></path>
                                    <path d="M37.3473337,66.5086161 C34.5741545,68.3099762 31.7672262,69.7235893 26.6653588,69.7235893 C20.7312692,69.7235893 17.896728,67.8127157 14.6138606,65.601164 C11.278452,63.350528 7.44831219,60.8115969 0.383627599,60.6428766 L0.383627599,63.4491448 C5.85136595,63.5923249 8.59041254,65.4389609 11.7382835,67.5626697 C15.1944986,69.8922483 19.1128462,72.5298575 26.6653588,72.5298575 C31.0849573,72.5298575 34.2562226,71.6247272 36.821538,70.4076966 C36.807348,70.2165318 36.9339072,67.9543479 37.3473337,66.5086161 Z M106.894572,60.6429927 C99.8295043,60.8113261 95.9993645,63.3502571 92.6593538,65.6012801 C89.381472,67.8128318 86.5469308,69.7237054 80.6128412,69.7237054 C75.0108735,69.7237054 72.169429,68.0183146 69.1074649,65.9673567 C69.1657588,66.1480732 69.9853251,70.0626326 69.9868591,70.1771766 C72.6350133,71.5072034 75.9190312,72.5299736 80.6128412,72.5299736 C88.1653538,72.5299736 92.0833179,69.8919774 95.5399165,67.5627858 C98.6877875,65.439077 101.426451,63.592441 106.894572,63.4492609 L106.894572,60.6429927 Z M39.1859695,78.9867211 C39.0275789,79.0923648 38.8684211,79.1987824 38.711948,79.3040391 C35.4294642,81.5155908 32.5995251,83.4260774 26.6654355,83.4260774 C20.7309624,83.4260774 17.8964211,81.5155908 14.6139373,79.3040391 C11.2785287,77.0530161 7.44838889,74.5140851 0.383320789,74.3457517 L0.383320789,77.1520199 C5.85144265,77.2952 8.59048925,79.141449 11.7383602,81.2651579 C15.1945753,83.5947364 19.1125394,86.2327326 26.6654355,86.2327326 C34.1826649,86.2327326 37.0944928,83.6195027 40.538819,81.2980506 C39.8695896,80.5593188 39.3428262,79.2726943 39.1859695,78.9867211 Z M106.894572,74.3456743 C99.8295043,74.5143946 95.9993645,77.0529387 92.6593538,79.3039617 C89.381472,81.5155134 86.5469308,83.426387 80.6128412,83.426387 C74.6783681,83.426387 71.8438269,81.5155134 68.561343,79.3039617 C68.3197301,79.140272 68.0750491,78.9758084 67.8276835,78.8109579 C67.6715939,79.1046705 66.0291633,81.3966483 66.1060957,81.4586284 C67.2389918,82.3713379 73.0599452,86.2326552 80.6128412,86.2326552 C88.1653538,86.2326552 92.0833179,83.594659 95.5399165,81.2654674 C98.6877875,79.1417586 101.426451,77.2951226 106.894572,77.1519425 L106.894572,74.3456743 Z M65.6859577,94.9662529 C62.4053914,92.7550881 59.5716172,90.8453755 53.6375276,90.8453755 C47.703438,90.8453755 44.8700473,92.7550881 41.5890975,94.9662529 C38.1336495,97.2958314 34.2168358,99.9357625 26.6643233,99.9357625 C19.1114272,99.9357625 15.1949971,97.2958314 11.7391656,94.9662529 C8.58899355,92.842931 5.85109749,90.9974559 0.38335914,90.8542759 L0.38335914,88.0480077 C7.44804373,88.216728 11.277033,90.7572069 14.6162767,93.0082299 C17.896843,95.2197816 20.7302337,97.1294943 26.6643233,97.1294943 C32.5980294,97.1294943 35.4318036,95.2197816 38.7127534,93.0082299 C42.1682014,90.6786513 46.0850151,88.0391073 53.6375276,88.0391073 C61.1900401,88.0391073 65.1068538,90.6786513 68.5630688,93.0082299 C71.8436351,95.2197816 74.6774093,97.1294943 80.6118824,97.1294943 C86.5463556,97.1294943 89.3801297,95.2197816 92.6606961,93.0082299 C96.0003233,90.7572069 99.8296961,88.216341 106.894764,88.0480077 L106.894764,90.8542759 C101.426642,90.997069 98.6883627,92.842931 95.5378072,94.9662529 C92.0815921,97.2958314 88.1647785,99.9357625 80.6118824,99.9357625 C73.0589864,99.9357625 69.1421728,97.2958314 65.6859577,94.9662529 Z" id="Combined-Shape"></path>
                                    <polygon id="Fill-19" points="65.0652043 2.62948276 80.7006272 2.62948276 80.7006272 0 65.0652043 0"></polygon>
                                    <polygon id="Fill-21" points="65.0652043 10.8561456 72.882724 10.8561456 72.882724 8.22666284 65.0652043 8.22666284"></polygon>
                                    <polygon id="Fill-22" points="65.0652043 19.0828084 80.7006272 19.0828084 80.7006272 16.4533257 65.0652043 16.4533257"></polygon>
                                    <polygon id="Fill-23" points="65.0652043 27.3094713 72.882724 27.3094713 72.882724 24.6799885 65.0652043 24.6799885"></polygon>
                                    <polygon id="Fill-24" points="65.0652043 35.5357471 80.7006272 35.5357471 80.7006272 32.9062644 65.0652043 32.9062644"></polygon>
                                    <polygon id="Fill-25" points="65.0652043 43.76241 72.882724 43.76241 72.882724 41.1329272 65.0652043 41.1329272"></polygon>
                                </g>
                                <text id="Coolant" font-family="CorporateS-Regular, CorpoS" font-size="64" font-weight="normal" letter-spacing="-1.27999997">
                                    <tspan x="0.0581248999" y="173">Coolant</tspan>
                                </text>
                                <text id="4" font-family="CorporateS-Regular, CorpoS" font-size="40" font-weight="normal" letter-spacing="-0.800000012">
                                    <tspan x="197.235938" y="155">4</tspan>
                                </text>
                            </g>
                        </g>
                    </g>
                </g>
            </g>
        </g>
    </g>
</svg>