<?xml version="1.0" encoding="UTF-8"?>
<svg width="211px" height="211px" viewBox="0 0 211 211" version="1.1" xmlns="http://www.w3.org/2000/svg" xmlns:xlink="http://www.w3.org/1999/xlink">
    <!-- Generator: Sketch 42 (36781) - http://www.bohemiancoding.com/sketch -->
    <title>smile</title>
    <desc>Created with Sketch.</desc>
    <defs></defs>
    <g id="v02_salestracker" stroke="none" stroke-width="1" fill="none" fill-rule="evenodd">
        <g id="02.7_Feedback" transform="translate(-172.000000, -1071.000000)" fill="#FFFFFF">
            <g id="Comment" transform="translate(56.000000, 998.000000)">
                <g id="smile" transform="translate(116.000000, 73.000000)">
                    <path d="M142.797599,132.779453 C139.195528,130.249128 134.230329,131.12662 131.708377,134.727017 C125.721671,143.292612 115.704194,147.757104 105.360171,147.770501 C95.0094484,147.757104 84.9986706,143.292612 79.0203373,134.727017 C76.4967103,131.12662 71.5315119,130.249128 67.9311151,132.77108 C64.3240198,135.294707 63.4465278,140.258231 65.9751786,143.867001 C75.3362103,157.220287 90.5181627,163.717747 105.360171,163.70435 L105.40371,163.70435 C120.230647,163.707699 135.380782,157.208564 144.751861,143.867001 C147.275488,140.264929 146.397996,135.294707 142.797599,132.779453 M145.793464,70.5445008 C136.094163,70.5445008 128.233575,78.4034135 128.233575,88.1060643 C128.233575,97.8020167 136.094163,105.665953 145.793464,105.665953 C155.49444,105.665953 163.355028,97.8020167 163.355028,88.1060643 C163.355028,78.4034135 155.49444,70.5445008 145.793464,70.5445008 M82.4901151,88.1060643 C82.4901151,78.4034135 74.6295278,70.5445008 64.9302262,70.5445008 C55.2309246,70.5445008 47.3703373,78.4034135 47.3703373,88.1060643 C47.3703373,97.8020167 55.2309246,105.665953 64.9302262,105.665953 C74.6295278,105.665953 82.4901151,97.8020167 82.4901151,88.1060643 M105.36352,194.083326 C56.3562579,193.997921 16.7200754,154.363413 16.6380198,105.36285 C16.7200754,56.3589373 56.3562579,16.7227548 105.36352,16.6390246 C154.357385,16.7227548 193.990218,56.3589373 194.087345,105.36285 C193.990218,154.363413 154.357385,193.997921 105.36352,194.083326 M105.36352,0.000167460318 C47.1677103,0.00686587302 0.00418650794,47.1703897 0.000837301592,105.36285 C0.00418650794,163.550287 47.1677103,210.71381 105.36352,210.718834 C163.550956,210.71381 210.712806,163.550287 210.724528,105.36285 C210.717829,47.1703897 163.550956,0.00686587302 105.36352,0.000167460318" id="Fill-1"></path>
                </g>
            </g>
        </g>
    </g>
</svg>