<?xml version="1.0" encoding="UTF-8"?>
<svg width="87px" height="108px" viewBox="0 0 87 108" version="1.1" xmlns="http://www.w3.org/2000/svg" xmlns:xlink="http://www.w3.org/1999/xlink">
    <!-- Generator: Sketch 42 (36781) - http://www.bohemiancoding.com/sketch -->
    <title>cleaning</title>
    <desc>Created with Sketch.</desc>
    <defs></defs>
    <g id="v02_salestracker" stroke="none" stroke-width="1" fill="none" fill-rule="evenodd">
        <g id="1_Cleaning" transform="translate(-274.000000, -1158.000000)" fill="#FFFFFF">
            <g id="Group" transform="translate(223.000000, 1118.000000)">
                <g id="ball-ON" transform="translate(94.000000, 558.500000) rotate(90.000000) translate(-94.000000, -558.500000) translate(-464.500000, 464.500000)">
                    <g id="cleaning" transform="translate(94.000000, 93.500000) scale(-1, 1) rotate(90.000000) translate(-94.000000, -93.500000) translate(51.000000, 40.000000)">
                        <path d="M86,44.9855622 L-1.13686838e-13,44.9855622 L2.26200873,25.9876892 C2.26200873,20.8891385 6.11572052,16.7094163 10.8165939,16.7094163 L36.1135371,16.7094163 L36.1135371,-4.26325641e-14 L49.8842795,-4.26325641e-14 L49.8842795,16.7094163 L75.1812227,16.7094163 C79.8820961,16.7094163 83.7358079,20.8844023 83.7358079,25.9876892 L86,44.9855622 Z M39.4166667,51.6966292 L46.5833333,51.6966292 L46.5833333,75.741573 L39.4166667,75.741573 L39.4166667,51.6966292 Z M39.4166667,82.9550562 L46.5833333,82.9550562 L46.5833333,107 L39.4166667,107 L39.4166667,82.9550562 Z M19.8558068,51.1961008 L26.5902706,53.6472452 L18.3664154,76.2421014 L11.6319517,73.7909571 L19.8558068,51.1961008 Z M59.4097294,53.6472452 L66.1441932,51.1961008 L74.3680483,73.7909571 L67.6335846,76.2421014 L59.4097294,53.6472452 Z M70.610056,84.6156546 L77.3445198,82.1645103 L82.2788329,95.721424 L75.5443691,98.1725684 L70.610056,84.6156546 Z M8.6554802,82.1645103 L15.389944,84.6156546 L10.4556309,98.1725684 L3.72116712,95.721424 L8.6554802,82.1645103 Z" id="Combined-Shape"></path>
                    </g>
                </g>
            </g>
        </g>
    </g>
</svg>