<?xml version="1.0" encoding="UTF-8"?>
<svg width="212px" height="211px" viewBox="0 0 212 211" version="1.1" xmlns="http://www.w3.org/2000/svg" xmlns:xlink="http://www.w3.org/1999/xlink">
    <!-- Generator: Sketch 42 (36781) - http://www.bohemiancoding.com/sketch -->
    <title>soso</title>
    <desc>Created with Sketch.</desc>
    <defs></defs>
    <g id="v02_salestracker" stroke="none" stroke-width="1" fill="none" fill-rule="evenodd">
        <g id="02.7_Feedback" transform="translate(-1057.000000, -1071.000000)" fill="#FFFFFF">
            <g id="Comment" transform="translate(56.000000, 998.000000)">
                <g id="soso" transform="translate(1000.000000, 73.000000)">
                    <path d="M129.699812,135.894885 L84.4344868,135.894885 C80.0211428,135.894885 76.4491555,139.463464 76.4491555,143.862647 C76.4491555,148.25848 80.0211428,151.825385 84.4344868,151.825385 L129.699812,151.825385 C134.113156,151.825385 137.681784,148.25848 137.681784,143.862647 C137.681784,139.463464 134.113156,135.894885 129.699812,135.894885 M84.1288442,88.1084087 C84.1288442,78.4074325 76.2459536,70.5468452 66.5191315,70.5468452 C56.7923094,70.5468452 48.9094188,78.4074325 48.9094188,88.1084087 C48.9094188,97.8077103 56.7923094,105.668298 66.5191315,105.668298 C76.2459536,105.668298 84.1288442,97.8077103 84.1288442,88.1084087 M147.611808,70.5468452 C137.884986,70.5468452 130.002095,78.4074325 130.002095,88.1084087 C130.002095,97.8077103 137.884986,105.668298 147.611808,105.668298 C157.336951,105.668298 165.2232,97.8077103 165.2232,88.1084087 C165.2232,78.4074325 157.336951,70.5468452 147.611808,70.5468452 M107.06379,194.087345 C57.9208358,194.00529 18.1721909,154.360734 18.0882231,105.36352 C18.1721909,56.3663056 57.9208358,16.7234246 107.06379,16.6380198 C156.200028,16.7234246 195.948673,56.3663056 196.042717,105.36352 C195.948673,154.360734 156.200028,194.00529 107.06379,194.087345 M107.06379,0.000837301587 C48.7011788,0.00753571429 1.40887289,47.1710595 1.40047611,105.36352 C1.40887289,163.552631 48.7011788,210.712806 107.06379,210.726202 C165.419685,210.721179 212.715349,163.552631 212.728784,105.36352 C212.720387,47.1710595 165.419685,0.00753571429 107.06379,0.000837301587" id="Fill-1"></path>
                </g>
            </g>
        </g>
    </g>
</svg>